PathFileType	4	(X/Y/Z)	D:\TRACE\spotREDO_2-26-24\spot_baseline_3-v60.trc
DataRate	CameraRate	NumFrames	NumMarkers	Units	OrigDataRate	OrigDataStartFrame	OrigNumFrames
100.00	100.00	      42	9	mm	100.00	4376	      7000
Frame#	Time	front left toe			Front right toe			aft left toe			aft right toe			Arm			FL body			FR body			AL Body			AR Body			
		X1	Y1	Z1	X2	Y2	Z2	X3	Y3	Z3	X4	Y4	Z4	X5	Y5	Z5	X6	Y6	Z6	X7	Y7	Z7	X8	Y8	Z8	X9	Y9	Z9	

4376	43.750	-163.62929	18.59529	-208.89517	305.49161	24.80803	-162.69225	-257.36826	21.81211	273.62784	264.01767	27.54226	273.29947	58.02931	808.79944	-371.05557	-27.78452	549.81049	-353.25882	127.42480	553.86963	-341.72382	-101.23569	562.91089	527.04749	46.26109	562.82465	540.32013	
4377	43.760	-163.53896	18.64073	-208.86299	305.57892	24.86009	-162.62473	-257.29868	21.97753	273.56183	264.02502	27.58150	273.34607	58.55128	808.78369	-371.34631	-26.99330	549.65704	-353.35275	128.23975	553.88361	-341.93924	-100.52073	563.12451	527.06549	46.90008	563.22870	540.08661	
4378	43.770	-163.42310	18.63639	-208.91566	305.66000	24.74739	-162.61003	-257.19897	22.03667	273.54129	264.20270	27.55126	273.37503	59.45483	808.64435	-371.79074	-26.00813	549.50726	-353.52399	128.98631	553.87598	-342.19290	-100.02717	563.19739	526.70367	47.43883	563.61395	540.09656	
4379	43.780	-163.30849	18.64199	-208.95663	305.81409	24.61668	-162.52014	-257.15393	22.00136	273.51639	264.24387	27.43180	273.37338	60.36564	808.59326	-372.19965	-25.08571	549.20099	-353.87354	130.17461	553.85028	-342.52811	-99.74261	563.37354	526.01544	47.70932	563.80023	539.59991	
4380	43.790	-163.18880	18.67144	-208.99852	305.92691	24.32577	-162.53236	-257.06049	21.91782	273.47244	264.34195	27.32128	273.33496	60.83071	808.39349	-372.47064	-24.35209	549.15973	-354.28387	130.98103	553.69507	-342.60507	-99.29478	563.65289	525.74396	48.18888	564.06610	539.38745	
4381	43.800	-163.12637	18.73999	-209.06125	306.07553	24.33079	-162.51285	-256.84164	21.94638	273.49423	264.40540	27.29191	273.28101	61.44145	808.35211	-372.94220	-23.43692	549.14484	-354.75189	131.86678	553.68921	-342.90524	-98.48740	563.67053	525.26648	48.93082	564.39172	538.97455	
4382	43.810	-163.12387	18.79260	-209.06700	305.88992	24.45131	-162.61229	-256.75357	21.97753	273.50330	264.39703	27.28076	273.32391	62.51608	808.38098	-373.28561	-22.58704	549.22626	-355.15909	132.62648	553.76196	-343.37189	-97.98778	564.01001	524.99591	49.83401	564.63794	538.85822	
4383	43.820	-163.06427	18.90092	-209.09697	305.97427	24.24264	-162.66605	-256.79568	22.10108	273.51828	264.46103	27.21496	273.31207	63.15204	808.31744	-373.65091	-21.66199	549.10309	-355.35751	133.51241	553.78394	-343.57849	-97.08847	564.11810	524.58673	50.39130	564.84290	538.30756	
4384	43.830	-162.97978	18.97415	-209.16716	306.07910	24.08396	-162.60214	-256.62698	22.10461	273.49673	264.52451	27.24171	273.34360	63.53032	808.39063	-374.30310	-20.78657	549.00952	-355.82114	134.24321	553.66687	-343.42526	-96.04213	564.27527	524.82520	51.03403	565.14850	537.95782	
4385	43.840	-162.95834	19.09383	-209.26523	306.15945	23.91287	-162.62125	-256.49585	22.03653	273.43301	264.47028	27.18815	273.29434	64.45861	808.42749	-374.72934	-20.01003	548.98248	-356.05328	135.22510	553.99432	-344.39658	-95.24493	564.32727	524.26178	51.91830	565.17200	537.49902	
4386	43.850	-162.88031	19.15154	-209.33250	306.21790	23.95394	-162.64896	-256.45328	22.07134	273.39059	264.54813	27.17215	273.26007	65.32422	808.40088	-374.96457	-19.31130	548.84790	-356.52216	135.97427	553.94879	-344.75797	-94.71716	564.30591	523.36475	52.91950	565.26251	537.08954	
4387	43.860	-162.88837	19.22189	-209.40167	306.30536	23.87275	-162.61673	-256.36404	22.14755	273.37305	264.62881	27.14511	273.24600	66.00388	808.40472	-375.47940	-18.26321	548.76868	-356.93677	136.71527	553.92871	-345.24637	-93.46452	564.23187	523.40015	54.06632	565.19739	536.96149	
4388	43.870	-162.82834	19.19595	-209.42078	306.45593	23.82884	-162.51315	-256.27701	22.31152	273.39780	264.62845	27.14703	273.24890	66.60907	808.43115	-376.04092	-17.64344	548.98883	-357.36877	137.64246	553.83759	-345.82242	-92.46722	564.27014	523.01703	54.93622	565.28156	536.19312	
4389	43.880	-162.85162	19.25587	-209.39742	306.53821	23.82007	-162.52330	-256.24393	22.43466	273.36804	264.69055	27.13977	273.26340	67.58756	808.30585	-376.46838	-16.57867	548.86102	-357.82010	138.37431	553.78748	-346.01248	-91.53549	564.39838	522.23035	56.19349	565.31421	535.83557	
4390	43.890	-162.81926	19.26217	-209.42352	306.36850	23.78646	-162.69879	-256.25836	22.46849	273.36664	264.77029	27.14656	273.27750	68.09963	808.17041	-377.07861	-15.94123	548.93280	-358.15784	139.22800	553.80939	-346.64835	-90.39735	564.38257	521.89886	57.26791	565.40161	535.33539	
4391	43.900	-162.76625	19.28815	-209.48880	306.44028	23.73830	-162.70200	-256.19852	22.48959	273.34106	265.17007	27.23514	273.34174	69.11672	808.11890	-377.44849	-15.05895	548.74023	-358.57245	140.24530	553.69891	-347.10349	-89.03594	564.43530	521.51007	58.27503	565.28882	534.86395	
4392	43.910	-162.70128	19.31033	-209.50781	306.53217	23.66193	-162.69528	-256.10657	22.53662	273.26553	265.42926	27.26019	273.38638	70.26655	808.12653	-377.90573	-14.26638	548.74060	-359.12961	140.93549	553.55621	-347.83481	-88.07931	564.42920	521.00708	59.65416	565.21899	534.27319	
4393	43.920	-162.63116	19.36129	-209.51138	306.59616	23.61716	-162.68364	-256.14276	22.58437	273.30807	265.39926	27.21259	273.38947	71.28822	808.08429	-378.35483	-13.39782	548.70081	-359.57663	141.97992	553.60236	-348.23965	-86.69349	564.35260	520.36023	61.04842	565.20801	533.91388	
4394	43.930	-162.66840	19.43408	-209.50812	306.60568	23.57528	-162.71172	-256.09445	22.66496	273.24802	265.53613	27.20934	273.41519	72.18339	808.10071	-379.04031	-12.27901	548.64685	-360.12350	142.92293	553.50079	-348.64420	-85.35368	564.41492	520.17926	62.28178	565.11816	533.19202	
4395	43.940	-162.61720	19.48285	-209.51147	306.61880	23.56571	-162.68840	-256.08801	22.68529	273.22256	265.12619	26.79775	273.28366	73.38747	807.89764	-379.35733	-11.25173	548.67578	-360.59576	143.84955	553.44922	-349.29984	-83.53747	564.22131	520.05475	63.66445	565.07324	532.73395	
4396	43.950	-162.47963	19.52619	-209.50743	306.62552	23.55889	-162.65604	-256.00104	22.87844	273.07800	265.30865	26.66083	273.32230	74.56172	807.91180	-379.88028	-10.19813	548.63013	-361.11337	144.83745	553.27533	-349.98480	-82.59917	564.19128	519.17896	65.11325	564.85425	532.54077	
4397	43.960	-162.43198	19.46805	-209.62003	306.62720	23.51181	-162.68179	-255.98764	23.06062	273.11145	265.42911	26.57061	273.31274	75.83350	807.78632	-380.30548	-9.12961	548.64343	-361.72198	146.11827	553.23724	-350.58850	-80.96762	564.13269	518.93793	66.07401	564.61993	531.60437	
4398	43.970	-162.27917	19.47309	-209.58052	306.65692	23.45456	-162.72945	-255.82329	22.97679	273.01663	265.51318	26.46802	273.39392	77.15772	807.82629	-380.97720	-8.01917	548.76672	-362.42084	147.25487	553.28064	-351.09998	-79.58713	563.78900	518.19812	67.55149	564.41632	530.96576	
4399	43.980	-162.33736	19.54860	-209.68939	306.65564	23.41881	-162.74661	-255.69127	23.05557	272.99503	265.57205	26.42917	273.42044	78.45292	807.89215	-381.45755	-6.66697	548.70221	-362.86633	148.55595	553.26050	-351.82968	-78.68850	563.73035	517.45197	68.74625	564.25958	530.40015	
4400	43.990	-162.33328	19.75744	-209.79298	306.76007	23.33782	-162.71635	-255.61530	23.08617	272.99860	265.58716	26.34834	273.50894	79.80534	807.93896	-382.09039	-5.25174	548.74286	-363.57834	149.84824	553.17084	-352.56638	-77.15356	563.40210	516.68073	70.23698	564.22931	529.22107	
4401	44.000	-162.15718	19.91479	-209.92210	306.77072	23.31646	-162.69664	-255.74820	23.12370	273.00677	265.64627	26.17646	273.49371	81.27283	807.95392	-382.66220	-3.86063	548.83875	-364.42438	151.46198	553.32928	-353.06100	-76.03613	563.41064	516.15656	72.00716	563.81744	529.43231	
4402	44.010	-162.05548	20.01534	-210.09944	306.88040	23.22084	-162.75996	-255.67244	23.18847	272.92175	265.77344	26.10130	273.47400	82.39191	808.01874	-383.50122	-2.51219	548.84381	-365.10458	152.82225	553.33325	-353.71259	-74.29804	563.04688	515.41351	73.34980	563.50989	528.68158	
4403	44.020	-161.98453	20.07555	-210.17470	306.88870	23.06168	-162.85582	-255.55818	23.23956	272.78378	265.83698	25.98232	273.54370	84.11099	808.14185	-384.11603	-0.93990	548.76697	-365.79019	154.17953	553.36389	-354.67236	-73.14056	562.83618	514.67194	74.43460	563.28510	527.50378	
4404	44.030	-161.92816	20.20942	-210.22905	306.91507	22.98228	-162.90645	-255.48897	23.26041	272.72174	265.94199	25.90544	273.56439	85.51859	808.24255	-384.83615	0.50921	548.84277	-366.72141	155.71533	553.33478	-355.37195	-71.33796	562.62781	514.04865	75.88874	562.95703	526.77069	
4405	44.040	-161.85789	20.39913	-210.32474	306.89346	22.56097	-163.08830	-255.40367	23.40621	272.59238	265.93634	25.80854	273.51602	87.12020	808.11310	-385.61264	2.03493	548.94855	-367.53870	157.35007	553.42883	-356.09097	-70.02026	562.24188	512.91937	77.29425	562.82452	525.81531	
4406	44.050	-161.73781	20.58755	-210.37192	306.94632	22.24679	-163.04294	-255.37737	23.49170	272.54858	265.95328	25.62726	273.47876	88.60385	808.19006	-386.46808	3.74382	548.79565	-368.33081	158.89072	553.47699	-357.14874	-68.66171	562.18726	512.01794	79.09592	562.73199	525.33105	
4407	44.060	-161.57272	20.63297	-210.43030	307.05386	22.21218	-163.04366	-255.22754	23.53309	272.42880	265.99432	25.59981	273.45038	90.26174	808.26855	-387.19763	5.48634	548.93744	-369.38379	160.73318	553.24286	-357.67358	-66.86535	561.84808	511.12021	80.71182	562.48248	524.50555	
4408	44.070	-161.47740	20.69917	-210.47981	307.07834	22.22684	-163.11522	-255.23637	23.55678	272.37192	266.04550	25.50545	273.39499	91.90803	808.31702	-388.24988	7.24750	548.92871	-370.35657	162.44205	553.61108	-358.83694	-65.05161	561.80762	510.31744	82.00304	562.36035	523.20599	
4409	44.080	-161.43576	20.77671	-210.51993	307.31131	22.26313	-163.10835	-255.11351	23.56874	272.28766	266.10992	25.38030	273.35941	93.42843	808.41571	-389.10562	8.86154	548.81537	-371.33136	163.99759	553.62042	-359.86896	-63.85648	561.63727	508.92032	83.55489	562.38330	522.11383	
4410	44.090	-161.38202	20.82948	-210.58458	307.54068	22.13349	-163.02573	-255.00020	23.65432	272.11072	266.07809	25.19524	273.32919	95.33891	808.39258	-390.18665	10.76097	548.91730	-372.38458	165.75018	553.73340	-360.99738	-62.22828	561.46747	507.91901	85.58346	562.37646	521.43536	
4411	44.100	-161.34230	20.93325	-210.71999	307.52750	21.97669	-163.05544	-254.99611	23.76675	272.12259	266.33218	25.18546	273.44284	96.96972	808.19128	-391.15631	12.69671	548.82288	-373.47852	167.59482	553.75665	-362.17441	-59.96223	561.48718	507.32178	87.18213	562.08191	520.06390	
4412	44.110	-161.24741	21.11267	-210.87065	307.82343	21.98930	-162.94125	-254.65057	23.65907	272.01682	266.35062	24.85555	273.23172	98.75008	808.15680	-392.37134	14.74794	548.69678	-374.48807	169.89381	553.72449	-363.28604	-58.61820	561.40277	505.61642	89.02460	562.13330	518.71527	
4413	44.120	-161.16679	21.19099	-210.90334	307.95886	22.00972	-163.01280	-254.58571	23.63473	272.03101	266.54501	25.24400	273.70966	101.01768	808.20026	-393.69693	16.72844	548.79327	-375.97635	172.03589	553.53876	-364.55469	-56.53215	561.25909	504.27216	91.33889	562.07721	517.72858	
4414	44.130	-161.20740	21.42676	-210.84399	307.99152	21.96388	-163.09712	-254.55006	23.45088	272.08929	266.53195	25.23322	273.76721	103.15182	808.16791	-395.13913	19.01695	548.44873	-377.28488	174.12590	553.55957	-365.89963	-54.57716	561.36163	502.83447	93.06882	561.98627	516.08545	
4415	44.140	-161.31497	21.31243	-210.95213	307.82632	21.90881	-163.53465	-255.08900	23.63928	271.92905	266.65195	25.08503	273.80939	105.55218	808.05273	-396.68973	21.23593	548.65143	-379.06314	176.50648	553.40015	-367.51566	-51.68255	561.17932	501.45126	95.97159	561.95483	514.89453	
4416	44.150	-160.65784	21.10610	-211.61276	308.57086	21.12778	-163.81705	-257.65134	30.11800	271.75095	267.45624	24.30927	273.58002	108.47465	807.96814	-398.49554	23.70643	548.69513	-380.85382	178.84862	553.60931	-369.20438	-50.11818	560.33490	499.46860	97.46827	561.57214	512.87048	
4417	44.160	-160.04115	21.50519	-212.17891	309.05826	21.04847	-163.54407	-254.53026	37.67511	278.23608	268.43228	24.07616	273.87180	110.49921	808.27075	-399.96326	26.82342	548.80841	-382.68558	181.88567	554.37659	-370.57654	-48.17686	559.01001	497.99500	99.23168	560.79486	511.60443	
